<?xml version="1.0" encoding="utf-8"?>
<!-- Generator: Adobe Illustrator 25.0.0, SVG Export Plug-In . SVG Version: 6.00 Build 0)  -->
<svg version="1.1" xmlns="http://www.w3.org/2000/svg" xmlns:xlink="http://www.w3.org/1999/xlink" x="0px" y="0px"
	 viewBox="0 0 791.64 173.35" style="enable-background:new 0 0 791.64 173.35;" xml:space="preserve">
<style type="text/css">
	.st0{display:none;}
	.st1{display:inline;}
	.st2{fill:#FFFFFF;}
</style>
<g id="BG">
	<rect x="0" y="0" transform="matrix(-1 -2.717572e-11 2.717572e-11 -1 791.635 173.3503)" width="791.64" height="173.35"/>
</g>
<g id="line_shape" class="st0">
	<g class="st1">
		<path class="st2" d="M352.77,45.27V26.81H-7.36v182.91h360.13v-23.87h-7.98v15.88H0.63V34.8h344.16v10.48H352.77z"/>
	</g>
	<g class="st1">
		<path class="st2" d="M-31.14,7.2v182.91H0.63v-7.98h-23.79V15.18h344.15V34.8h7.98V7.2H-31.14z"/>
	</g>
</g>
<g id="text_logo">
	<g>
		<path class="st2" d="M456.06,146.09l55.51-134.34l24.06,60.32H519.9l-4.4-11.47h-6.15l-8.14,24.24c0,0,59.4-19.43,83.64,23.68
			C584.85,108.53,523.51,62.73,456.06,146.09z"/>
		<polygon class="st2" points="532.67,103.16 549.6,103.16 565.14,148.12 		"/>
		<polygon class="st2" points="490.2,53.2 433.42,53.2 478.39,82.07 		"/>
	</g>
	<path class="st2" d="M121.55,29.64v18.85h31.03v0.01h23.35v-0.01h31.02V29.64H121.55z M152.58,146.06h23.35V63.14h-23.35V146.06z"
		/>
	<path class="st2" d="M224.58,127.04v19.02h66.94v-19.02H224.58z M224.58,29.48v19.01h66.94V29.48H224.58z M224.58,77.68v18.51
		h59.21V77.68H224.58z"/>
	<path class="st2" d="M312.7,127.61v18.45h61.71v-18.45H312.7z M336.05,29.64H312.7v83.33h23.35V29.64z"/>
	<path class="st2" d="M389.25,127.61v18.45h61.71v-18.45H389.25z M412.6,29.64h-23.35v83.33h23.35V29.64z"/>
	<path class="st2" d="M646.72,98.86c8.78-2.33,15.39-6.58,19.84-12.76c4.45-6.17,6.67-13.09,6.67-20.77c0-6.67-1.59-12.69-4.76-18.1
		c-3.17-5.38-7.93-9.67-14.25-12.84c-6.34-3.17-14.01-4.76-23.02-4.76h-43.7v19.35h42.86c6.34,0,11.06,1.47,14.17,4.42
		c3.11,2.94,4.68,7.08,4.68,12.42c0,5.45-1.56,9.7-4.68,12.76s-7.83,4.58-14.17,4.58H587.5v62.89h23.35v-45.37h11l25.69,45.37h27.01
		L646.72,98.86z"/>
	<g>
		<g>
			<polygon class="st2" points="767.25,28.35 767.25,62.58 737.86,28.35 			"/>
		</g>
		<polygon class="st2" points="719.6,146.61 690.27,146.61 690.27,112.4 		"/>
		<g>
			<path class="st2" d="M764.45,146.16l-4.94,3.55l1.11-5.99c2.52-13.66-2.18-23.5-4.32-27.08l-0.13-0.23
				c-2.45-4.4-14.38-11.73-18.77-14.19c-0.83-0.46-20.91-11.45-22.27-12.26c-5.09-2.96-17.52-11.6-22.78-27.44
				c-6.58-19.77,2.68-32.31,3.08-32.84l4.24-5.58l0.18,7c0.44,17.49,14.87,27.9,15,27.99c0.16,0.11,9.03,6.76,19.34,11.78
				c10.65,5.19,18.88,10.46,19.23,10.68c19.55,12.66,22.15,29.04,22.25,29.73C779.13,135.34,765.06,145.73,764.45,146.16z"/>
		</g>
	</g>
	<g>
		<g>
			<polygon class="st2" points="100.21,28.35 100.21,62.58 70.83,28.35 			"/>
		</g>
		<polygon class="st2" points="52.57,146.61 23.23,146.61 23.23,112.4 		"/>
		<g>
			<path class="st2" d="M97.42,146.16l-4.94,3.55l1.11-5.99c2.52-13.66-2.18-23.5-4.32-27.08l-0.13-0.23
				c-2.45-4.4-14.38-11.73-18.77-14.19c-0.83-0.46-20.91-11.45-22.27-12.26c-5.09-2.96-17.52-11.6-22.78-27.44
				c-6.58-19.77,2.68-32.31,3.08-32.84l4.24-5.58l0.18,7c0.44,17.49,14.87,27.9,15,27.99c0.16,0.11,9.03,6.76,19.34,11.78
				c10.65,5.19,18.88,10.46,19.23,10.68c19.55,12.66,22.15,29.04,22.25,29.73C112.09,135.34,98.02,145.73,97.42,146.16z"/>
		</g>
	</g>
</g>
</svg>
